<svg width="24.000000" height="24.000000" viewBox="0 0 24 24" fill="none" xmlns="http://www.w3.org/2000/svg" xmlns:xlink="http://www.w3.org/1999/xlink">
	<desc>
			Created with Pixso.
	</desc>
	<defs>
		<clipPath id="clip0_62">
			<rect id="Apple_logo_black" width="24.000000" height="24.000000" fill="white" fill-opacity="0"/>
		</clipPath>
	</defs>
	<rect id="Apple_logo_black" width="24.000000" height="24.000000" fill="#E5E5E5" fill-opacity="0"/>
	<g clip-path="url(#clip0_62)">
		<path id="Vector" d="M21.22 18.38C20.88 19.18 20.47 19.92 19.99 20.59C19.35 21.52 18.82 22.15 18.41 22.51C17.78 23.09 17.1 23.39 16.37 23.4C15.85 23.4 15.23 23.26 14.49 22.96C13.76 22.66 13.09 22.51 12.47 22.51C11.82 22.51 11.13 22.66 10.39 22.96C9.64 23.26 9.05 23.41 8.59 23.43C7.89 23.46 7.2 23.15 6.51 22.51C6.06 22.12 5.51 21.46 4.85 20.53C4.14 19.53 3.56 18.37 3.1 17.05C2.61 15.62 2.36 14.24 2.36 12.9C2.36 11.37 2.69 10.04 3.36 8.94C3.88 8.05 4.57 7.34 5.44 6.83C6.31 6.31 7.25 6.05 8.26 6.03C8.81 6.03 9.53 6.21 10.43 6.54C11.33 6.88 11.91 7.05 12.16 7.05C12.35 7.05 12.99 6.85 14.08 6.45C15.11 6.08 15.97 5.93 16.68 5.99C18.61 6.14 20.05 6.9 21.01 8.27C19.29 9.31 18.44 10.77 18.46 12.65C18.47 14.11 19 15.32 20.04 16.28C20.52 16.73 21.04 17.08 21.63 17.32C21.5 17.69 21.37 18.04 21.22 18.38ZM16.81 1.02C16.81 2.16 16.39 3.23 15.56 4.22C14.55 5.39 13.34 6.07 12.02 5.96C12 5.83 11.99 5.68 11.99 5.53C11.99 4.43 12.47 3.26 13.32 2.3C13.74 1.81 14.28 1.41 14.94 1.08C15.59 0.77 16.21 0.59 16.79 0.56C16.8 0.71 16.81 0.87 16.81 1.02L16.81 1.02Z" fill="#FFFFFF" fill-opacity="1.000000" fill-rule="nonzero"/>
	</g>
</svg>
