<svg width="23.000000" height="23.000000" viewBox="0 0 23 23" fill="none" xmlns="http://www.w3.org/2000/svg" xmlns:xlink="http://www.w3.org/1999/xlink">
	<desc>
			Created with Pixso.
	</desc>
	<defs/>
	<rect id="instagram logo" width="20.000000" height="20.000000" transform="translate(2.000000 2.000000)" fill="#FFFFFF" fill-opacity="0"/>
	<path id="Vector" d="M15.81 0L7.18 0C3.21 0 0 3.21 0 7.18L0 15.81C0 19.78 3.21 23 7.18 23L15.81 23C19.78 23 23 19.78 23 15.81L23 7.18C23 3.21 19.78 0 15.81 0ZM20.84 15.81C20.84 18.58 18.58 20.84 15.81 20.84L7.18 20.84C4.41 20.84 2.15 18.58 2.15 15.81L2.15 7.18C2.15 4.41 4.41 2.15 7.18 2.15L15.81 2.15C18.58 2.15 20.84 4.41 20.84 7.18L20.84 15.81Z" fill="#FFFFFF" fill-opacity="1.000000" fill-rule="nonzero"/>
	<path id="Vector" d="M11.5 5.75C8.32 5.75 5.75 8.32 5.75 11.5C5.75 14.67 8.32 17.25 11.5 17.25C14.67 17.25 17.25 14.67 17.25 11.5C17.25 8.32 14.67 5.75 11.5 5.75ZM11.5 15.09C9.51 15.09 7.9 13.48 7.9 11.5C7.9 9.51 9.51 7.9 11.5 7.9C13.48 7.9 15.09 9.51 15.09 11.5C15.09 13.48 13.48 15.09 11.5 15.09Z" fill="#FFFFFF" fill-opacity="1.000000" fill-rule="nonzero"/>
	<path id="Vector" d="M18.44 5.31C18.44 5.74 18.1 6.08 17.68 6.08C17.25 6.08 16.91 5.74 16.91 5.31C16.91 4.89 17.25 4.55 17.68 4.55C18.1 4.55 18.44 4.89 18.44 5.31Z" fill="#FFFFFF" fill-opacity="1.000000" fill-rule="evenodd"/>
</svg>
