<svg width="23.000000" height="20.000000" viewBox="0 0 23 20" fill="none" xmlns="http://www.w3.org/2000/svg" xmlns:xlink="http://www.w3.org/1999/xlink">
	<desc>
			Created with Pixso.
	</desc>
	<defs/>
	<rect id="twitter logo" width="20.000000" height="20.000000" transform="translate(2.000000 0.000000)" fill="#FFFFFF" fill-opacity="0"/>
	<path id="Vector" d="M23 2.36C22.14 2.74 21.23 2.99 20.28 3.11C21.26 2.52 22 1.61 22.35 0.5C21.44 1.05 20.43 1.43 19.36 1.64C18.5 0.72 17.26 0.15 15.92 0.15C13.31 0.15 11.21 2.27 11.21 4.87C11.21 5.24 11.24 5.6 11.32 5.94C7.4 5.75 3.93 3.87 1.6 1.01C1.19 1.72 0.95 2.52 0.95 3.39C0.95 5.03 1.79 6.47 3.05 7.31C2.29 7.3 1.54 7.08 0.92 6.73C0.92 6.75 0.92 6.77 0.92 6.78C0.92 9.08 2.55 10.98 4.69 11.42C4.31 11.52 3.89 11.57 3.46 11.57C3.15 11.57 2.85 11.55 2.56 11.49C3.17 13.36 4.91 14.73 6.97 14.78C5.37 16.03 3.33 16.79 1.12 16.79C0.74 16.79 0.37 16.77 0 16.72C2.08 18.07 4.56 18.84 7.23 18.84C15.91 18.84 20.65 11.65 20.65 5.42C20.65 5.21 20.64 5.01 20.63 4.81C21.57 4.15 22.35 3.32 23 2.36Z" fill="#FFFFFF" fill-opacity="1.000000" fill-rule="nonzero"/>
</svg>
